<svg xmlns="http://www.w3.org/2000/svg" style="display:none" aria-hidden="true">
  <defs>
    <linearGradient id="circuitGradient" x1="0" y1="0" x2="1" y2="0">
      <stop offset="0" stop-color="#4DA3FF" stop-opacity="0"/>
      <stop offset="0.5" stop-color="#4DA3FF" stop-opacity="0.9"/>
      <stop offset="1" stop-color="#4DA3FF" stop-opacity="0"/>
    </linearGradient>
  </defs>

  <symbol id="icon-edit" viewBox="0 0 24 24" fill="none" stroke="currentColor" stroke-width="2" stroke-linecap="round" stroke-linejoin="round">
    <path d="M12 20h9"/><path d="M16.5 3.5a2.12 2.12 0 013 3L7 19l-4 1 1-4L16.5 3.5z"/>
  </symbol>
  <symbol id="icon-trash" viewBox="0 0 24 24" fill="none" stroke="currentColor" stroke-width="2" stroke-linecap="round" stroke-linejoin="round">
    <path d="M3 6h18"/><path d="M8 6V4a2 2 0 012-2h4a2 2 0 012 2v2"/><path d="M19 6l-1 14a2 2 0 01-2 2H8a2 2 0 01-2-2L5 6"/><path d="M10 11v6M14 11v6"/>
  </symbol>
  <symbol id="icon-plus" viewBox="0 0 24 24" fill="none" stroke="currentColor" stroke-width="2" stroke-linecap="round" stroke-linejoin="round">
    <path d="M12 5v14M5 12h14"/>
  </symbol>
  <symbol id="icon-duplicate" viewBox="0 0 24 24" fill="none" stroke="currentColor" stroke-width="2" stroke-linecap="round" stroke-linejoin="round">
    <rect x="9" y="9" width="12" height="12" rx="2"/><path d="M5 15H4a2 2 0 01-2-2V4a2 2 0 012-2h9a2 2 0 012 2v1"/>
  </symbol>
  <symbol id="icon-grip" viewBox="0 0 24 24" fill="currentColor">
    <circle cx="8" cy="6" r="1.5"/><circle cx="8" cy="12" r="1.5"/><circle cx="8" cy="18" r="1.5"/>
    <circle cx="16" cy="6" r="1.5"/><circle cx="16" cy="12" r="1.5"/><circle cx="16" cy="18" r="1.5"/>
  </symbol>
  <symbol id="icon-upload" viewBox="0 0 24 24" fill="none" stroke="currentColor" stroke-width="2" stroke-linecap="round" stroke-linejoin="round">
    <path d="M12 16V4M7 9l5-5 5 5"/><path d="M4 16v3a2 2 0 002 2h12a2 2 0 002-2v-3"/>
  </symbol>
  <symbol id="icon-check" viewBox="0 0 24 24" fill="none" stroke="currentColor" stroke-width="2.5" stroke-linecap="round" stroke-linejoin="round">
    <path d="M20 6L9 17l-5-5"/>
  </symbol>
  <symbol id="icon-x" viewBox="0 0 24 24" fill="none" stroke="currentColor" stroke-width="2" stroke-linecap="round" stroke-linejoin="round">
    <path d="M18 6L6 18M6 6l12 12"/>
  </symbol>
  <symbol id="icon-alert" viewBox="0 0 24 24" fill="none" stroke="currentColor" stroke-width="2" stroke-linecap="round" stroke-linejoin="round">
    <circle cx="12" cy="12" r="10"/><path d="M12 8v4M12 16h.01"/>
  </symbol>
  <symbol id="icon-sun" viewBox="0 0 24 24" fill="none" stroke="currentColor" stroke-width="2" stroke-linecap="round" stroke-linejoin="round">
    <circle cx="12" cy="12" r="5"/><path d="M12 1v3M12 20v3M4.2 4.2l2.1 2.1M17.7 17.7l2.1 2.1M1 12h3M20 12h3M4.2 19.8l2.1-2.1M17.7 6.3l2.1-2.1"/>
  </symbol>
  <symbol id="icon-moon" viewBox="0 0 24 24" fill="none" stroke="currentColor" stroke-width="2" stroke-linecap="round" stroke-linejoin="round">
    <path d="M21 12.8A9 9 0 1111.2 3 7 7 0 0021 12.8z"/>
  </symbol>
  <symbol id="icon-mail" viewBox="0 0 24 24" fill="none" stroke="currentColor" stroke-width="2" stroke-linecap="round" stroke-linejoin="round">
    <rect x="2" y="4" width="20" height="16" rx="2"/><path d="M2 7l10 6 10-6"/>
  </symbol>
  <symbol id="icon-phone" viewBox="0 0 24 24" fill="none" stroke="currentColor" stroke-width="2" stroke-linecap="round" stroke-linejoin="round">
    <path d="M22 16.9v3a2 2 0 01-2.2 2 19.8 19.8 0 01-8.6-3.1 19.5 19.5 0 01-6-6A19.8 19.8 0 012.1 4.2 2 2 0 014 2h3a2 2 0 012 1.7c.1 1 .3 2 .6 2.9a2 2 0 01-.4 2.1L8 10a16 16 0 006 6l1.3-1.2a2 2 0 012.1-.4c.9.3 1.9.5 2.9.6a2 2 0 011.7 2z"/>
  </symbol>
  <symbol id="icon-pin" viewBox="0 0 24 24" fill="none" stroke="currentColor" stroke-width="2" stroke-linecap="round" stroke-linejoin="round">
    <path d="M21 10c0 6-9 12-9 12S3 16 3 10a9 9 0 0118 0z"/><circle cx="12" cy="10" r="3"/>
  </symbol>
  <symbol id="icon-linkedin" viewBox="0 0 24 24" fill="none" stroke="currentColor" stroke-width="2" stroke-linecap="round" stroke-linejoin="round">
    <rect x="3" y="3" width="18" height="18" rx="2"/><path d="M7 10v7M7 7v.01M11 17v-4a2 2 0 014 0v4M11 13v4"/>
  </symbol>
  <symbol id="icon-github" viewBox="0 0 24 24" fill="none" stroke="currentColor" stroke-width="2" stroke-linecap="round" stroke-linejoin="round">
    <path d="M9 19c-4 1.5-4-2-6-2m12 4v-3.4c0-.9.3-1.5.7-1.8-2.4-.3-5-1.2-5-5.3 0-1.2.4-2.1 1.1-2.9-.1-.3-.5-1.4.1-2.9 0 0 .9-.3 3 1.1a10.4 10.4 0 015.4 0c2.1-1.4 3-1.1 3-1.1.6 1.5.2 2.6.1 2.9.7.8 1.1 1.7 1.1 2.9 0 4.1-2.6 5-5 5.3.4.3.7 1 .7 2V21"/>
  </symbol>
  <symbol id="icon-download" viewBox="0 0 24 24" fill="none" stroke="currentColor" stroke-width="2" stroke-linecap="round" stroke-linejoin="round">
    <path d="M12 4v12M6 11l6 6 6-6"/><path d="M4 20h16"/>
  </symbol>
  <symbol id="icon-undo" viewBox="0 0 24 24" fill="none" stroke="currentColor" stroke-width="2" stroke-linecap="round" stroke-linejoin="round">
    <path d="M9 14L4 9l5-5"/><path d="M4 9h11a6 6 0 010 12h-2"/>
  </symbol>
  <symbol id="icon-redo" viewBox="0 0 24 24" fill="none" stroke="currentColor" stroke-width="2" stroke-linecap="round" stroke-linejoin="round">
    <path d="M15 14l5-5-5-5"/><path d="M20 9H9a6 6 0 000 12h2"/>
  </symbol>
  <symbol id="icon-reset" viewBox="0 0 24 24" fill="none" stroke="currentColor" stroke-width="2" stroke-linecap="round" stroke-linejoin="round">
    <path d="M3 12a9 9 0 109-9 9.7 9.7 0 00-6.7 2.8L3 8"/><path d="M3 3v5h5"/>
  </symbol>
  <symbol id="icon-export" viewBox="0 0 24 24" fill="none" stroke="currentColor" stroke-width="2" stroke-linecap="round" stroke-linejoin="round">
    <path d="M21 15v4a2 2 0 01-2 2H5a2 2 0 01-2-2v-4"/><path d="M7 10l5 5 5-5"/><path d="M12 15V3"/>
  </symbol>
  <symbol id="icon-import" viewBox="0 0 24 24" fill="none" stroke="currentColor" stroke-width="2" stroke-linecap="round" stroke-linejoin="round">
    <path d="M21 15v4a2 2 0 01-2 2H5a2 2 0 01-2-2v-4"/><path d="M17 8l-5-5-5 5"/><path d="M12 3v12"/>
  </symbol>
  <symbol id="icon-chevron-down" viewBox="0 0 24 24" fill="none" stroke="currentColor" stroke-width="2" stroke-linecap="round" stroke-linejoin="round">
    <path d="M6 9l6 6 6-6"/>
  </symbol>
  <symbol id="icon-external" viewBox="0 0 24 24" fill="none" stroke="currentColor" stroke-width="2" stroke-linecap="round" stroke-linejoin="round">
    <path d="M18 13v6a2 2 0 01-2 2H5a2 2 0 01-2-2V8a2 2 0 012-2h6"/><path d="M15 3h6v6"/><path d="M10 14L21 3"/>
  </symbol>
  <symbol id="icon-briefcase" viewBox="0 0 24 24" fill="none" stroke="currentColor" stroke-width="2" stroke-linecap="round" stroke-linejoin="round">
    <rect x="2" y="7" width="20" height="14" rx="2"/><path d="M16 21V5a2 2 0 00-2-2h-4a2 2 0 00-2 2v16"/>
  </symbol>
  <symbol id="icon-cap" viewBox="0 0 24 24" fill="none" stroke="currentColor" stroke-width="2" stroke-linecap="round" stroke-linejoin="round">
    <path d="M22 10L12 5 2 10l10 5 10-5z"/><path d="M6 12v5c0 1.7 2.7 3 6 3s6-1.3 6-3v-5"/>
  </symbol>
  <symbol id="icon-layers" viewBox="0 0 24 24" fill="none" stroke="currentColor" stroke-width="2" stroke-linecap="round" stroke-linejoin="round">
    <path d="M12 2l9 5-9 5-9-5 9-5z"/><path d="M3 12l9 5 9-5M3 17l9 5 9-5"/>
  </symbol>
  <symbol id="icon-folder" viewBox="0 0 24 24" fill="none" stroke="currentColor" stroke-width="2" stroke-linecap="round" stroke-linejoin="round">
    <path d="M3 7a2 2 0 012-2h4l2 2h8a2 2 0 012 2v9a2 2 0 01-2 2H5a2 2 0 01-2-2V7z"/>
  </symbol>
  <symbol id="icon-user" viewBox="0 0 24 24" fill="none" stroke="currentColor" stroke-width="2" stroke-linecap="round" stroke-linejoin="round">
    <circle cx="12" cy="8" r="4"/><path d="M4 21v-1a8 8 0 0116 0v1"/>
  </symbol>
  <symbol id="icon-message" viewBox="0 0 24 24" fill="none" stroke="currentColor" stroke-width="2" stroke-linecap="round" stroke-linejoin="round">
    <path d="M21 15a2 2 0 01-2 2H7l-4 4V5a2 2 0 012-2h14a2 2 0 012 2z"/>
  </symbol>
  <symbol id="icon-terminal" viewBox="0 0 24 24" fill="none" stroke="currentColor" stroke-width="2" stroke-linecap="round" stroke-linejoin="round">
    <rect x="3" y="4" width="18" height="16" rx="2"/><path d="M7 9l3 3-3 3M13 15h4"/>
  </symbol>
  <symbol id="icon-eye" viewBox="0 0 24 24" fill="none" stroke="currentColor" stroke-width="2" stroke-linecap="round" stroke-linejoin="round">
    <path d="M1 12s4-7 11-7 11 7 11 7-4 7-11 7-11-7-11-7z"/><circle cx="12" cy="12" r="3"/>
  </symbol>
</svg>
